<svg id="Vrstva_1" data-name="Vrstva 1" xmlns="http://www.w3.org/2000/svg" viewBox="0 0 273.513 55.12"><defs><style>.cls-1{fill:#30a9d4;}.cls-2{fill:#ff7a04;}</style></defs><title>logo_heureka_RGB</title><g id="Logo_claim" data-name="Logo claim"><path class="cls-1" d="M96.623,47.455a3.83,3.83,0,0,1-7.66,0h0V31.545h-18.9v15.91a3.83,3.83,0,0,1-7.66,0h0V9.635a3.83,3.83,0,1,1,7.66,0v14.91h18.88V9.635a3.83,3.83,0,1,1,7.66-.008V47.455Z"/><path class="cls-1" d="M116.793,19.865c11.15,0,13.2,8.58,13.2,13.14,0,2.44,0,5.28-4,5.28h-16.37c0,4.75,3.37,6.93,7.72,6.93a11.29,11.29,0,0,0,6.54-2,3.55,3.55,0,0,1,2.11-.73,3.1,3.1,0,0,1,3.1,3.1h0a3.3,3.3,0,0,1-1.12,2.44c-1.12,1.06-4.62,3.63-10.63,3.63-9.17,0-14.85-5-14.85-16,0-10.1,5.28-15.78,14.26-15.78m-6.93,12.48h13.07c0-3.24-1.85-6.4-6.14-6.4-3.83,0-6.6,2.18-6.93,6.4"/><path class="cls-1" d="M141.743,23.825v15.38c0,3,1.06,5.94,5.94,5.94s5.87-2.9,5.87-5.94V23.825a3.565,3.565,0,0,1,7.13,0v15.38c0,6.47-2.44,12.41-13,12.41s-13.06-5.95-13.06-12.41V23.825a3.565,3.565,0,0,1,7.13,0"/><path class="cls-1" d="M174.083,24.115a8.22,8.22,0,0,1,7.13-4.22,3.37,3.37,0,0,1,0,6.73c-4.55,0-7.13,2.9-7.13,7.33v13.76a3.565,3.565,0,0,1-7.13,0V23.825a3.565,3.565,0,0,1,7.13,0Z"/><path class="cls-1" d="M200.623,19.865c11.15,0,13.2,8.58,13.2,13.14,0,2.44,0,5.28-4,5.28h-16.3c0,4.75,3.37,6.93,7.72,6.93a11.29,11.29,0,0,0,6.54-2,3.55,3.55,0,0,1,2.11-.73,3.1,3.1,0,0,1,3.1,3.1h0a3.3,3.3,0,0,1-1.12,2.44c-1.12,1.06-4.62,3.63-10.63,3.63-9.18,0-14.85-5-14.85-16,0-10.1,5.28-15.78,14.26-15.78m-6.93,12.48h13.07c0-3.24-1.85-6.4-6.14-6.4-3.83,0-6.6,2.18-6.93,6.4"/><path class="cls-1" d="M238.173,49.9l-9.84-13.2-2.11,1.65v9.5a3.44,3.44,0,0,1-3.436,3.444q-.082,0-.164,0a3.4,3.4,0,0,1-3.556-3.236q0-.1,0-.194V7.185a3.4,3.4,0,0,1,3.366-3.434q.1,0,.194,0a3.44,3.44,0,0,1,3.558,3.318q0,.056,0,.112v23.3l11.99-9.37a3.48,3.48,0,0,1,2.31-.86,3.41,3.41,0,0,1,3.43,3.39q0,.02,0,.04a3.47,3.47,0,0,1-1.29,2.71l-8.65,6.6,9.65,12.74a3.55,3.55,0,0,1,.72,2.11,3.41,3.41,0,0,1-3.39,3.43h-.04a3.37,3.37,0,0,1-2.77-1.39"/><path class="cls-1" d="M253.883,28.705a3.15,3.15,0,0,1-5.08-2.44,3.27,3.27,0,0,1,.82-2.15c1.85-2,5.15-4.22,10.82-4.22,8.19,0,13.07,4,13.07,11V47.8a3.5,3.5,0,1,1-7,0c-1.78,2.84-4.69,3.83-8.65,3.83-6.47,0-10.76-4-10.76-10,0-6.14,4.95-9.31,10.69-9.31h8.65v-1.2c0-3-2.18-5-6-5a10.9,10.9,0,0,0-6.6,2.51m12.61,11v-1.74h-7.72c-2.9,0-4.49,1.39-4.49,3.76s1.78,4,5.48,4c3.5,0,6.73-2.24,6.73-5.94"/><path class="cls-2" d="M49.843,48.225l-8.8-8.8h0a23.58,23.58,0,1,0-6.44,5l9.5,9.5a4.045,4.045,0,1,0,5.74-5.7ZM6.773,23.775a16.82,16.82,0,0,1,26-14.09l-9.65,15.55-4-5.27a3.134,3.134,0,1,0-5,3.78l6.74,8.9a3.15,3.15,0,0,0,2.5,1.24h.16a3.13,3.13,0,0,0,2.52-1.47l11.37-18.3a16.83,16.83,0,1,1-30.64,9.66Z"/></g></svg>